<mxfile host="app.diagrams.net" modified="2024-05-28T01:24:27.384Z" agent="Mozilla/5.0 (Windows NT 10.0; Win64; x64) AppleWebKit/537.36 (KHTML, like Gecko) Chrome/124.0.0.0 Safari/537.36" etag="CIMuvQEC14FYQhD4UU1W" version="24.4.8" type="github" pages="5">
  <diagram name="流程模板CRUD" id="l7ETgdYbAlDT3ln601Ar">
    <mxGraphModel dx="1434" dy="780" grid="1" gridSize="10" guides="1" tooltips="1" connect="1" arrows="1" fold="1" page="1" pageScale="1" pageWidth="827" pageHeight="1169" math="0" shadow="0">
      <root>
        <mxCell id="0" />
        <mxCell id="1" parent="0" />
        <mxCell id="i6D_zPiAmZ7pMk7o-Lk9-1" value="&lt;div&gt;OPENAPI&lt;/div&gt;流程模板CRUD" style="strokeWidth=2;html=1;shape=mxgraph.flowchart.start_2;whiteSpace=wrap;fillColor=#CCFFE6;" parent="1" vertex="1">
          <mxGeometry x="40" y="80" width="80" height="80" as="geometry" />
        </mxCell>
        <mxCell id="i6D_zPiAmZ7pMk7o-Lk9-2" value="模板表&lt;div&gt;模板明细表&lt;/div&gt;" style="strokeWidth=2;html=1;shape=mxgraph.flowchart.database;whiteSpace=wrap;" parent="1" vertex="1">
          <mxGeometry x="260" y="90" width="60" height="60" as="geometry" />
        </mxCell>
        <mxCell id="i6D_zPiAmZ7pMk7o-Lk9-3" style="edgeStyle=orthogonalEdgeStyle;rounded=0;orthogonalLoop=1;jettySize=auto;html=1;entryX=0;entryY=0.5;entryDx=0;entryDy=0;entryPerimeter=0;" parent="1" source="i6D_zPiAmZ7pMk7o-Lk9-1" target="i6D_zPiAmZ7pMk7o-Lk9-2" edge="1">
          <mxGeometry relative="1" as="geometry" />
        </mxCell>
      </root>
    </mxGraphModel>
  </diagram>
  <diagram id="cH4UXT0Gxmv82lslt4du" name="流程模板发布/取消">
    <mxGraphModel dx="1434" dy="780" grid="1" gridSize="10" guides="1" tooltips="1" connect="1" arrows="1" fold="1" page="1" pageScale="1" pageWidth="827" pageHeight="1169" math="0" shadow="0">
      <root>
        <mxCell id="0" />
        <mxCell id="1" parent="0" />
        <mxCell id="0WWyWtB9rmM_Zs8ct8X_-4" style="edgeStyle=orthogonalEdgeStyle;rounded=0;orthogonalLoop=1;jettySize=auto;html=1;" edge="1" parent="1" source="0WWyWtB9rmM_Zs8ct8X_-5" target="0WWyWtB9rmM_Zs8ct8X_-10">
          <mxGeometry relative="1" as="geometry" />
        </mxCell>
        <mxCell id="0WWyWtB9rmM_Zs8ct8X_-5" value="&lt;div&gt;OPENAPI&lt;/div&gt;流程模板&lt;div&gt;发布/取消&lt;/div&gt;" style="strokeWidth=2;html=1;shape=mxgraph.flowchart.start_2;whiteSpace=wrap;fillColor=#CCFFE6;" vertex="1" parent="1">
          <mxGeometry x="40" y="310" width="80" height="80" as="geometry" />
        </mxCell>
        <mxCell id="0WWyWtB9rmM_Zs8ct8X_-6" style="edgeStyle=orthogonalEdgeStyle;rounded=0;orthogonalLoop=1;jettySize=auto;html=1;exitX=0.5;exitY=0;exitDx=0;exitDy=0;exitPerimeter=0;" edge="1" parent="1" source="0WWyWtB9rmM_Zs8ct8X_-10" target="0WWyWtB9rmM_Zs8ct8X_-11">
          <mxGeometry relative="1" as="geometry" />
        </mxCell>
        <mxCell id="0WWyWtB9rmM_Zs8ct8X_-7" value="Y" style="edgeLabel;html=1;align=center;verticalAlign=middle;resizable=0;points=[];" vertex="1" connectable="0" parent="0WWyWtB9rmM_Zs8ct8X_-6">
          <mxGeometry x="-0.325" relative="1" as="geometry">
            <mxPoint as="offset" />
          </mxGeometry>
        </mxCell>
        <mxCell id="0WWyWtB9rmM_Zs8ct8X_-8" style="edgeStyle=orthogonalEdgeStyle;rounded=0;orthogonalLoop=1;jettySize=auto;html=1;entryX=0;entryY=0.5;entryDx=0;entryDy=0;exitX=0.5;exitY=1;exitDx=0;exitDy=0;exitPerimeter=0;" edge="1" parent="1" source="0WWyWtB9rmM_Zs8ct8X_-10" target="0WWyWtB9rmM_Zs8ct8X_-16">
          <mxGeometry relative="1" as="geometry" />
        </mxCell>
        <mxCell id="0WWyWtB9rmM_Zs8ct8X_-9" value="N" style="edgeLabel;html=1;align=center;verticalAlign=middle;resizable=0;points=[];" vertex="1" connectable="0" parent="0WWyWtB9rmM_Zs8ct8X_-8">
          <mxGeometry x="-0.4583" y="2" relative="1" as="geometry">
            <mxPoint as="offset" />
          </mxGeometry>
        </mxCell>
        <mxCell id="0WWyWtB9rmM_Zs8ct8X_-10" value="是否发布" style="strokeWidth=2;html=1;shape=mxgraph.flowchart.decision;whiteSpace=wrap;" vertex="1" parent="1">
          <mxGeometry x="200" y="300" width="100" height="100" as="geometry" />
        </mxCell>
        <mxCell id="0WWyWtB9rmM_Zs8ct8X_-11" value="部署流程&lt;div&gt;&lt;br&gt;&lt;div&gt;更新字段&lt;/div&gt;&lt;/div&gt;" style="rounded=1;whiteSpace=wrap;html=1;absoluteArcSize=1;arcSize=14;strokeWidth=2;" vertex="1" parent="1">
          <mxGeometry x="380" y="210" width="100" height="100" as="geometry" />
        </mxCell>
        <mxCell id="0WWyWtB9rmM_Zs8ct8X_-12" value="模板表" style="strokeWidth=2;html=1;shape=mxgraph.flowchart.database;whiteSpace=wrap;" vertex="1" parent="1">
          <mxGeometry x="590" y="280" width="60" height="60" as="geometry" />
        </mxCell>
        <mxCell id="0WWyWtB9rmM_Zs8ct8X_-13" value="Camunda" style="shape=tape;whiteSpace=wrap;html=1;strokeWidth=2;size=0.19" vertex="1" parent="1">
          <mxGeometry x="590" y="180" width="100" height="65" as="geometry" />
        </mxCell>
        <mxCell id="0WWyWtB9rmM_Zs8ct8X_-14" style="edgeStyle=orthogonalEdgeStyle;rounded=0;orthogonalLoop=1;jettySize=auto;html=1;entryX=0;entryY=0.5;entryDx=0;entryDy=0;entryPerimeter=0;" edge="1" parent="1" source="0WWyWtB9rmM_Zs8ct8X_-11" target="0WWyWtB9rmM_Zs8ct8X_-13">
          <mxGeometry relative="1" as="geometry" />
        </mxCell>
        <mxCell id="0WWyWtB9rmM_Zs8ct8X_-15" style="edgeStyle=orthogonalEdgeStyle;rounded=0;orthogonalLoop=1;jettySize=auto;html=1;entryX=0;entryY=0.5;entryDx=0;entryDy=0;entryPerimeter=0;" edge="1" parent="1" source="0WWyWtB9rmM_Zs8ct8X_-11" target="0WWyWtB9rmM_Zs8ct8X_-12">
          <mxGeometry relative="1" as="geometry" />
        </mxCell>
        <mxCell id="0WWyWtB9rmM_Zs8ct8X_-16" value="取消部署&lt;div&gt;&lt;br&gt;&lt;div&gt;更新字段&lt;/div&gt;&lt;/div&gt;" style="rounded=1;whiteSpace=wrap;html=1;absoluteArcSize=1;arcSize=14;strokeWidth=2;" vertex="1" parent="1">
          <mxGeometry x="380" y="400" width="100" height="100" as="geometry" />
        </mxCell>
        <mxCell id="0WWyWtB9rmM_Zs8ct8X_-17" value="模板表" style="strokeWidth=2;html=1;shape=mxgraph.flowchart.database;whiteSpace=wrap;" vertex="1" parent="1">
          <mxGeometry x="590" y="470" width="60" height="60" as="geometry" />
        </mxCell>
        <mxCell id="0WWyWtB9rmM_Zs8ct8X_-18" value="Camunda" style="shape=tape;whiteSpace=wrap;html=1;strokeWidth=2;size=0.19" vertex="1" parent="1">
          <mxGeometry x="590" y="370" width="100" height="65" as="geometry" />
        </mxCell>
        <mxCell id="0WWyWtB9rmM_Zs8ct8X_-19" style="edgeStyle=orthogonalEdgeStyle;rounded=0;orthogonalLoop=1;jettySize=auto;html=1;entryX=0;entryY=0.5;entryDx=0;entryDy=0;entryPerimeter=0;" edge="1" parent="1" source="0WWyWtB9rmM_Zs8ct8X_-16" target="0WWyWtB9rmM_Zs8ct8X_-18">
          <mxGeometry relative="1" as="geometry" />
        </mxCell>
        <mxCell id="0WWyWtB9rmM_Zs8ct8X_-20" style="edgeStyle=orthogonalEdgeStyle;rounded=0;orthogonalLoop=1;jettySize=auto;html=1;entryX=0;entryY=0.5;entryDx=0;entryDy=0;entryPerimeter=0;" edge="1" parent="1" source="0WWyWtB9rmM_Zs8ct8X_-16" target="0WWyWtB9rmM_Zs8ct8X_-17">
          <mxGeometry relative="1" as="geometry" />
        </mxCell>
      </root>
    </mxGraphModel>
  </diagram>
  <diagram id="0BlyqhO5KFi0o0tBZvYO" name="流程模板实例化">
    <mxGraphModel dx="1434" dy="780" grid="1" gridSize="10" guides="1" tooltips="1" connect="1" arrows="1" fold="1" page="1" pageScale="1" pageWidth="827" pageHeight="1169" math="0" shadow="0">
      <root>
        <mxCell id="0" />
        <mxCell id="1" parent="0" />
        <mxCell id="gxGcvxE5HAsRTnytk4aD-21" style="edgeStyle=orthogonalEdgeStyle;rounded=0;orthogonalLoop=1;jettySize=auto;html=1;entryX=0;entryY=0.5;entryDx=0;entryDy=0;" edge="1" parent="1" source="gxGcvxE5HAsRTnytk4aD-23" target="gxGcvxE5HAsRTnytk4aD-24">
          <mxGeometry relative="1" as="geometry" />
        </mxCell>
        <mxCell id="gxGcvxE5HAsRTnytk4aD-22" value="流程模板id&lt;div&gt;项目id&lt;/div&gt;" style="edgeLabel;html=1;align=center;verticalAlign=middle;resizable=0;points=[];" vertex="1" connectable="0" parent="gxGcvxE5HAsRTnytk4aD-21">
          <mxGeometry x="-0.4" y="-2" relative="1" as="geometry">
            <mxPoint x="24" y="-2" as="offset" />
          </mxGeometry>
        </mxCell>
        <mxCell id="gxGcvxE5HAsRTnytk4aD-23" value="Feign&lt;div&gt;流程模板&lt;span style=&quot;background-color: initial;&quot;&gt;实例化&lt;/span&gt;&lt;/div&gt;" style="strokeWidth=2;html=1;shape=mxgraph.flowchart.start_1;whiteSpace=wrap;fillColor=#CCFFE6;" vertex="1" parent="1">
          <mxGeometry x="70" y="275" width="100" height="60" as="geometry" />
        </mxCell>
        <mxCell id="gxGcvxE5HAsRTnytk4aD-24" value="流程实例化" style="rounded=1;whiteSpace=wrap;html=1;" vertex="1" parent="1">
          <mxGeometry x="290" y="275" width="120" height="60" as="geometry" />
        </mxCell>
        <mxCell id="gxGcvxE5HAsRTnytk4aD-25" value="Camunda" style="shape=tape;whiteSpace=wrap;html=1;strokeWidth=2;size=0.19" vertex="1" parent="1">
          <mxGeometry x="560" y="210" width="100" height="65" as="geometry" />
        </mxCell>
        <mxCell id="gxGcvxE5HAsRTnytk4aD-26" style="edgeStyle=orthogonalEdgeStyle;rounded=0;orthogonalLoop=1;jettySize=auto;html=1;entryX=0;entryY=0.5;entryDx=0;entryDy=0;entryPerimeter=0;" edge="1" parent="1" source="gxGcvxE5HAsRTnytk4aD-24" target="gxGcvxE5HAsRTnytk4aD-25">
          <mxGeometry relative="1" as="geometry" />
        </mxCell>
        <mxCell id="gxGcvxE5HAsRTnytk4aD-27" value="startProcessInstanceById" style="edgeLabel;html=1;align=center;verticalAlign=middle;resizable=0;points=[];" vertex="1" connectable="0" parent="gxGcvxE5HAsRTnytk4aD-26">
          <mxGeometry x="0.0165" y="2" relative="1" as="geometry">
            <mxPoint as="offset" />
          </mxGeometry>
        </mxCell>
        <mxCell id="gxGcvxE5HAsRTnytk4aD-28" value="流程实例表&lt;div&gt;流程实例的活动表&lt;br&gt;&lt;/div&gt;" style="strokeWidth=2;html=1;shape=mxgraph.flowchart.database;whiteSpace=wrap;" vertex="1" parent="1">
          <mxGeometry x="560" y="315" width="90" height="60" as="geometry" />
        </mxCell>
        <mxCell id="gxGcvxE5HAsRTnytk4aD-29" style="edgeStyle=orthogonalEdgeStyle;rounded=0;orthogonalLoop=1;jettySize=auto;html=1;entryX=0;entryY=0.5;entryDx=0;entryDy=0;entryPerimeter=0;" edge="1" parent="1" source="gxGcvxE5HAsRTnytk4aD-24" target="gxGcvxE5HAsRTnytk4aD-28">
          <mxGeometry relative="1" as="geometry" />
        </mxCell>
      </root>
    </mxGraphModel>
  </diagram>
  <diagram id="K8lqO4OSsvfsMEH1d2M4" name="查询流程定义XML">
    <mxGraphModel dx="1434" dy="780" grid="1" gridSize="10" guides="1" tooltips="1" connect="1" arrows="1" fold="1" page="1" pageScale="1" pageWidth="827" pageHeight="1169" math="0" shadow="0">
      <root>
        <mxCell id="0" />
        <mxCell id="1" parent="0" />
        <mxCell id="2cQujYC0tiZMBItmTR_Q-30" style="edgeStyle=orthogonalEdgeStyle;rounded=0;orthogonalLoop=1;jettySize=auto;html=1;" edge="1" parent="1" source="2cQujYC0tiZMBItmTR_Q-32" target="2cQujYC0tiZMBItmTR_Q-33">
          <mxGeometry relative="1" as="geometry" />
        </mxCell>
        <mxCell id="2cQujYC0tiZMBItmTR_Q-31" value="引擎流程实例id" style="edgeLabel;html=1;align=center;verticalAlign=middle;resizable=0;points=[];" vertex="1" connectable="0" parent="2cQujYC0tiZMBItmTR_Q-30">
          <mxGeometry x="-0.4" y="-2" relative="1" as="geometry">
            <mxPoint x="24" y="-2" as="offset" />
          </mxGeometry>
        </mxCell>
        <mxCell id="2cQujYC0tiZMBItmTR_Q-32" value="OPENAPI&lt;div&gt;查询流程定义XML&lt;br&gt;&lt;/div&gt;" style="strokeWidth=2;html=1;shape=mxgraph.flowchart.start_1;whiteSpace=wrap;fillColor=#CCFFE6;" vertex="1" parent="1">
          <mxGeometry x="50" y="172.5" width="100" height="60" as="geometry" />
        </mxCell>
        <mxCell id="2cQujYC0tiZMBItmTR_Q-33" value="查询" style="rounded=1;whiteSpace=wrap;html=1;" vertex="1" parent="1">
          <mxGeometry x="270" y="172.5" width="120" height="60" as="geometry" />
        </mxCell>
        <mxCell id="2cQujYC0tiZMBItmTR_Q-34" value="Camunda" style="shape=tape;whiteSpace=wrap;html=1;strokeWidth=2;size=0.19" vertex="1" parent="1">
          <mxGeometry x="520" y="170" width="100" height="65" as="geometry" />
        </mxCell>
        <mxCell id="2cQujYC0tiZMBItmTR_Q-35" style="edgeStyle=orthogonalEdgeStyle;rounded=0;orthogonalLoop=1;jettySize=auto;html=1;entryX=0;entryY=0.5;entryDx=0;entryDy=0;entryPerimeter=0;" edge="1" parent="1" source="2cQujYC0tiZMBItmTR_Q-33" target="2cQujYC0tiZMBItmTR_Q-34">
          <mxGeometry relative="1" as="geometry">
            <mxPoint x="500" y="212.5" as="targetPoint" />
          </mxGeometry>
        </mxCell>
        <mxCell id="2cQujYC0tiZMBItmTR_Q-36" value="获取流程定义的xml" style="edgeLabel;html=1;align=center;verticalAlign=middle;resizable=0;points=[];" vertex="1" connectable="0" parent="2cQujYC0tiZMBItmTR_Q-35">
          <mxGeometry x="-0.1692" y="-1" relative="1" as="geometry">
            <mxPoint x="6" y="-1" as="offset" />
          </mxGeometry>
        </mxCell>
      </root>
    </mxGraphModel>
  </diagram>
  <diagram id="8F24Gx20t4c-J9nuQl2x" name="任务">
    <mxGraphModel dx="1434" dy="780" grid="1" gridSize="10" guides="1" tooltips="1" connect="1" arrows="1" fold="1" page="1" pageScale="1" pageWidth="827" pageHeight="1169" math="0" shadow="0">
      <root>
        <mxCell id="0" />
        <mxCell id="1" parent="0" />
        <mxCell id="hDY_atvJ24UPQ20lIap3-1" style="edgeStyle=orthogonalEdgeStyle;rounded=0;orthogonalLoop=1;jettySize=auto;html=1;entryX=0;entryY=0.5;entryDx=0;entryDy=0;" edge="1" parent="1" source="hDY_atvJ24UPQ20lIap3-3" target="hDY_atvJ24UPQ20lIap3-8">
          <mxGeometry relative="1" as="geometry" />
        </mxCell>
        <mxCell id="hDY_atvJ24UPQ20lIap3-2" value="引擎taskId&lt;div&gt;&lt;span style=&quot;font-size:12.0pt;font-family:&lt;br/&gt;&amp;quot;Arial&amp;quot;,sans-serif;mso-fareast-font-family:宋体;mso-bidi-font-family:&amp;quot;Times New Roman&amp;quot;;&lt;br/&gt;mso-font-kerning:0pt;mso-ansi-language:EN-US;mso-fareast-language:ZH-CN;&lt;br/&gt;mso-bidi-language:AR-SA&quot; lang=&quot;EN-US&quot;&gt;variables&lt;/span&gt;&lt;br&gt;&lt;/div&gt;" style="edgeLabel;html=1;align=center;verticalAlign=middle;resizable=0;points=[];" vertex="1" connectable="0" parent="hDY_atvJ24UPQ20lIap3-1">
          <mxGeometry x="-0.2" relative="1" as="geometry">
            <mxPoint as="offset" />
          </mxGeometry>
        </mxCell>
        <mxCell id="hDY_atvJ24UPQ20lIap3-3" value="OPENAPI&lt;div&gt;完成任务&lt;/div&gt;" style="strokeWidth=2;html=1;shape=mxgraph.flowchart.start_1;whiteSpace=wrap;" vertex="1" parent="1">
          <mxGeometry x="30" y="882.5" width="100" height="60" as="geometry" />
        </mxCell>
        <mxCell id="hDY_atvJ24UPQ20lIap3-4" style="edgeStyle=orthogonalEdgeStyle;rounded=0;orthogonalLoop=1;jettySize=auto;html=1;" edge="1" parent="1" source="hDY_atvJ24UPQ20lIap3-6" target="hDY_atvJ24UPQ20lIap3-29">
          <mxGeometry relative="1" as="geometry" />
        </mxCell>
        <mxCell id="hDY_atvJ24UPQ20lIap3-5" value="wf_process_instance_activity_id" style="edgeLabel;html=1;align=center;verticalAlign=middle;resizable=0;points=[];" vertex="1" connectable="0" parent="hDY_atvJ24UPQ20lIap3-4">
          <mxGeometry x="-0.2727" y="4" relative="1" as="geometry">
            <mxPoint x="17" y="4" as="offset" />
          </mxGeometry>
        </mxCell>
        <mxCell id="hDY_atvJ24UPQ20lIap3-6" value="&lt;div&gt;&lt;/div&gt;&lt;div&gt;Feign&lt;/div&gt;&lt;div&gt;完成任务&lt;/div&gt;" style="strokeWidth=2;html=1;shape=mxgraph.flowchart.start_1;whiteSpace=wrap;fillColor=#FFFFFF;" vertex="1" parent="1">
          <mxGeometry x="30" y="380" width="100" height="60" as="geometry" />
        </mxCell>
        <mxCell id="hDY_atvJ24UPQ20lIap3-7" value="" style="edgeStyle=orthogonalEdgeStyle;rounded=0;orthogonalLoop=1;jettySize=auto;html=1;" edge="1" parent="1" source="hDY_atvJ24UPQ20lIap3-8" target="hDY_atvJ24UPQ20lIap3-13">
          <mxGeometry relative="1" as="geometry" />
        </mxCell>
        <mxCell id="hDY_atvJ24UPQ20lIap3-8" value="查询流程实例id" style="rounded=1;whiteSpace=wrap;html=1;" vertex="1" parent="1">
          <mxGeometry x="240" y="882.5" width="120" height="60" as="geometry" />
        </mxCell>
        <mxCell id="hDY_atvJ24UPQ20lIap3-9" value="Camunda" style="shape=tape;whiteSpace=wrap;html=1;strokeWidth=2;size=0.19" vertex="1" parent="1">
          <mxGeometry x="430" y="880" width="100" height="65" as="geometry" />
        </mxCell>
        <mxCell id="hDY_atvJ24UPQ20lIap3-10" style="edgeStyle=orthogonalEdgeStyle;rounded=0;orthogonalLoop=1;jettySize=auto;html=1;entryX=0;entryY=0.5;entryDx=0;entryDy=0;entryPerimeter=0;" edge="1" parent="1" source="hDY_atvJ24UPQ20lIap3-8" target="hDY_atvJ24UPQ20lIap3-9">
          <mxGeometry relative="1" as="geometry" />
        </mxCell>
        <mxCell id="hDY_atvJ24UPQ20lIap3-11" style="edgeStyle=orthogonalEdgeStyle;rounded=0;orthogonalLoop=1;jettySize=auto;html=1;" edge="1" parent="1" source="hDY_atvJ24UPQ20lIap3-13" target="hDY_atvJ24UPQ20lIap3-14">
          <mxGeometry relative="1" as="geometry" />
        </mxCell>
        <mxCell id="hDY_atvJ24UPQ20lIap3-12" style="edgeStyle=orthogonalEdgeStyle;rounded=0;orthogonalLoop=1;jettySize=auto;html=1;" edge="1" parent="1" source="hDY_atvJ24UPQ20lIap3-13" target="hDY_atvJ24UPQ20lIap3-41">
          <mxGeometry relative="1" as="geometry" />
        </mxCell>
        <mxCell id="hDY_atvJ24UPQ20lIap3-13" value="查询wf流程实例" style="rounded=1;whiteSpace=wrap;html=1;" vertex="1" parent="1">
          <mxGeometry x="240" y="992.5" width="120" height="60" as="geometry" />
        </mxCell>
        <mxCell id="hDY_atvJ24UPQ20lIap3-14" value="流程实例表" style="strokeWidth=2;html=1;shape=mxgraph.flowchart.database;whiteSpace=wrap;" vertex="1" parent="1">
          <mxGeometry x="430" y="992.5" width="60" height="60" as="geometry" />
        </mxCell>
        <mxCell id="hDY_atvJ24UPQ20lIap3-15" style="edgeStyle=orthogonalEdgeStyle;rounded=0;orthogonalLoop=1;jettySize=auto;html=1;" edge="1" parent="1" source="hDY_atvJ24UPQ20lIap3-18" target="hDY_atvJ24UPQ20lIap3-26">
          <mxGeometry relative="1" as="geometry" />
        </mxCell>
        <mxCell id="hDY_atvJ24UPQ20lIap3-16" value="Y" style="edgeLabel;html=1;align=center;verticalAlign=middle;resizable=0;points=[];" vertex="1" connectable="0" parent="hDY_atvJ24UPQ20lIap3-15">
          <mxGeometry x="-0.2126" y="-1" relative="1" as="geometry">
            <mxPoint as="offset" />
          </mxGeometry>
        </mxCell>
        <mxCell id="hDY_atvJ24UPQ20lIap3-17" value="" style="edgeStyle=orthogonalEdgeStyle;rounded=0;orthogonalLoop=1;jettySize=auto;html=1;" edge="1" parent="1" source="hDY_atvJ24UPQ20lIap3-18" target="hDY_atvJ24UPQ20lIap3-27">
          <mxGeometry relative="1" as="geometry" />
        </mxCell>
        <mxCell id="hDY_atvJ24UPQ20lIap3-18" value="wf流程实例是否有&lt;div&gt;task_project_id&lt;/div&gt;&lt;div&gt;关联&lt;/div&gt;" style="strokeWidth=2;html=1;shape=mxgraph.flowchart.decision;whiteSpace=wrap;direction=south;" vertex="1" parent="1">
          <mxGeometry x="250" y="1402.5" width="100" height="100" as="geometry" />
        </mxCell>
        <mxCell id="hDY_atvJ24UPQ20lIap3-19" style="edgeStyle=orthogonalEdgeStyle;rounded=0;orthogonalLoop=1;jettySize=auto;html=1;" edge="1" parent="1" source="hDY_atvJ24UPQ20lIap3-20" target="hDY_atvJ24UPQ20lIap3-21">
          <mxGeometry relative="1" as="geometry" />
        </mxCell>
        <mxCell id="hDY_atvJ24UPQ20lIap3-20" value="完成任务" style="rounded=1;whiteSpace=wrap;html=1;" vertex="1" parent="1">
          <mxGeometry x="240" y="1292.5" width="120" height="60" as="geometry" />
        </mxCell>
        <mxCell id="hDY_atvJ24UPQ20lIap3-21" value="Camunda" style="shape=tape;whiteSpace=wrap;html=1;strokeWidth=2;size=0.19" vertex="1" parent="1">
          <mxGeometry x="430" y="1290" width="100" height="65" as="geometry" />
        </mxCell>
        <mxCell id="hDY_atvJ24UPQ20lIap3-22" style="edgeStyle=orthogonalEdgeStyle;rounded=0;orthogonalLoop=1;jettySize=auto;html=1;entryX=0;entryY=0.5;entryDx=0;entryDy=0;entryPerimeter=0;" edge="1" parent="1" source="hDY_atvJ24UPQ20lIap3-20" target="hDY_atvJ24UPQ20lIap3-18">
          <mxGeometry relative="1" as="geometry" />
        </mxCell>
        <mxCell id="hDY_atvJ24UPQ20lIap3-23" value="&lt;div&gt;ssp-task&lt;/div&gt;&lt;div&gt;完成任务&lt;/div&gt;" style="strokeWidth=2;html=1;shape=mxgraph.flowchart.start_1;whiteSpace=wrap;" vertex="1" parent="1">
          <mxGeometry x="720" y="1422.5" width="100" height="60" as="geometry" />
        </mxCell>
        <mxCell id="hDY_atvJ24UPQ20lIap3-24" style="edgeStyle=orthogonalEdgeStyle;rounded=0;orthogonalLoop=1;jettySize=auto;html=1;" edge="1" parent="1" source="hDY_atvJ24UPQ20lIap3-26" target="hDY_atvJ24UPQ20lIap3-23">
          <mxGeometry relative="1" as="geometry" />
        </mxCell>
        <mxCell id="hDY_atvJ24UPQ20lIap3-25" value="wf_process_instance_activity_id" style="edgeLabel;html=1;align=center;verticalAlign=middle;resizable=0;points=[];" vertex="1" connectable="0" parent="hDY_atvJ24UPQ20lIap3-24">
          <mxGeometry x="-0.3187" y="1" relative="1" as="geometry">
            <mxPoint x="23" y="1" as="offset" />
          </mxGeometry>
        </mxCell>
        <mxCell id="hDY_atvJ24UPQ20lIap3-26" value="根据wf实例id、activity_id&lt;div&gt;查询对应的&lt;div&gt;流程实例活动&lt;/div&gt;&lt;/div&gt;" style="rounded=1;whiteSpace=wrap;html=1;" vertex="1" parent="1">
          <mxGeometry x="413.5" y="1422.5" width="120" height="60" as="geometry" />
        </mxCell>
        <mxCell id="hDY_atvJ24UPQ20lIap3-27" value="结束" style="ellipse;whiteSpace=wrap;html=1;strokeWidth=2;" vertex="1" parent="1">
          <mxGeometry x="270" y="1542.5" width="60" height="40" as="geometry" />
        </mxCell>
        <mxCell id="hDY_atvJ24UPQ20lIap3-28" style="edgeStyle=orthogonalEdgeStyle;rounded=0;orthogonalLoop=1;jettySize=auto;html=1;entryX=0.5;entryY=0;entryDx=0;entryDy=0;" edge="1" parent="1" source="hDY_atvJ24UPQ20lIap3-29" target="hDY_atvJ24UPQ20lIap3-39">
          <mxGeometry relative="1" as="geometry" />
        </mxCell>
        <mxCell id="hDY_atvJ24UPQ20lIap3-29" value="查询&lt;span style=&quot;background-color: initial;&quot;&gt;流程实例活动&lt;/span&gt;" style="rounded=1;whiteSpace=wrap;html=1;" vertex="1" parent="1">
          <mxGeometry x="330" y="380" width="120" height="60" as="geometry" />
        </mxCell>
        <mxCell id="hDY_atvJ24UPQ20lIap3-30" value="Camunda" style="shape=tape;whiteSpace=wrap;html=1;strokeWidth=2;size=0.19" vertex="1" parent="1">
          <mxGeometry x="550" y="610" width="100" height="65" as="geometry" />
        </mxCell>
        <mxCell id="hDY_atvJ24UPQ20lIap3-31" value="" style="edgeStyle=orthogonalEdgeStyle;rounded=0;orthogonalLoop=1;jettySize=auto;html=1;" edge="1" parent="1" source="hDY_atvJ24UPQ20lIap3-32" target="hDY_atvJ24UPQ20lIap3-34">
          <mxGeometry relative="1" as="geometry" />
        </mxCell>
        <mxCell id="hDY_atvJ24UPQ20lIap3-32" value="查询流程实例中&lt;div&gt;activity_id相同的可办任务&lt;br&gt;&lt;/div&gt;" style="rounded=1;whiteSpace=wrap;html=1;" vertex="1" parent="1">
          <mxGeometry x="330" y="612.5" width="120" height="60" as="geometry" />
        </mxCell>
        <mxCell id="hDY_atvJ24UPQ20lIap3-33" style="edgeStyle=orthogonalEdgeStyle;rounded=0;orthogonalLoop=1;jettySize=auto;html=1;entryX=0;entryY=0.5;entryDx=0;entryDy=0;entryPerimeter=0;" edge="1" parent="1" source="hDY_atvJ24UPQ20lIap3-32" target="hDY_atvJ24UPQ20lIap3-30">
          <mxGeometry relative="1" as="geometry" />
        </mxCell>
        <mxCell id="hDY_atvJ24UPQ20lIap3-34" value="完成任务" style="rounded=1;whiteSpace=wrap;html=1;" vertex="1" parent="1">
          <mxGeometry x="330" y="712.5" width="120" height="60" as="geometry" />
        </mxCell>
        <mxCell id="hDY_atvJ24UPQ20lIap3-35" style="edgeStyle=orthogonalEdgeStyle;rounded=0;orthogonalLoop=1;jettySize=auto;html=1;entryX=0.51;entryY=0.915;entryDx=0;entryDy=0;entryPerimeter=0;" edge="1" parent="1" source="hDY_atvJ24UPQ20lIap3-34" target="hDY_atvJ24UPQ20lIap3-30">
          <mxGeometry relative="1" as="geometry">
            <mxPoint x="690" y="722.5" as="targetPoint" />
          </mxGeometry>
        </mxCell>
        <mxCell id="hDY_atvJ24UPQ20lIap3-36" value="&lt;div&gt;ssp-task&lt;/div&gt;OPENAPI&lt;div&gt;完成任务&lt;/div&gt;" style="strokeWidth=2;html=1;shape=mxgraph.flowchart.start_1;whiteSpace=wrap;" vertex="1" parent="1">
          <mxGeometry x="30" y="270" width="100" height="60" as="geometry" />
        </mxCell>
        <mxCell id="hDY_atvJ24UPQ20lIap3-37" style="edgeStyle=orthogonalEdgeStyle;rounded=0;orthogonalLoop=1;jettySize=auto;html=1;entryX=0.5;entryY=0;entryDx=0;entryDy=0;entryPerimeter=0;" edge="1" parent="1" source="hDY_atvJ24UPQ20lIap3-36" target="hDY_atvJ24UPQ20lIap3-6">
          <mxGeometry relative="1" as="geometry" />
        </mxCell>
        <mxCell id="hDY_atvJ24UPQ20lIap3-38" style="edgeStyle=orthogonalEdgeStyle;rounded=0;orthogonalLoop=1;jettySize=auto;html=1;" edge="1" parent="1" source="hDY_atvJ24UPQ20lIap3-39" target="hDY_atvJ24UPQ20lIap3-32">
          <mxGeometry relative="1" as="geometry" />
        </mxCell>
        <mxCell id="hDY_atvJ24UPQ20lIap3-39" value="检查输出物等是否齐全" style="rounded=1;whiteSpace=wrap;html=1;" vertex="1" parent="1">
          <mxGeometry x="330" y="500" width="120" height="60" as="geometry" />
        </mxCell>
        <mxCell id="hDY_atvJ24UPQ20lIap3-40" style="edgeStyle=orthogonalEdgeStyle;rounded=0;orthogonalLoop=1;jettySize=auto;html=1;entryX=0.5;entryY=0;entryDx=0;entryDy=0;" edge="1" parent="1" source="hDY_atvJ24UPQ20lIap3-41" target="hDY_atvJ24UPQ20lIap3-43">
          <mxGeometry relative="1" as="geometry" />
        </mxCell>
        <mxCell id="hDY_atvJ24UPQ20lIap3-41" value="查询&lt;span style=&quot;background-color: initial;&quot;&gt;流程实例活动&lt;/span&gt;" style="rounded=1;whiteSpace=wrap;html=1;" vertex="1" parent="1">
          <mxGeometry x="240" y="1090" width="120" height="60" as="geometry" />
        </mxCell>
        <mxCell id="hDY_atvJ24UPQ20lIap3-42" value="" style="edgeStyle=orthogonalEdgeStyle;rounded=0;orthogonalLoop=1;jettySize=auto;html=1;" edge="1" parent="1" source="hDY_atvJ24UPQ20lIap3-43" target="hDY_atvJ24UPQ20lIap3-20">
          <mxGeometry relative="1" as="geometry" />
        </mxCell>
        <mxCell id="hDY_atvJ24UPQ20lIap3-43" value="检查输出物等是否齐全" style="rounded=1;whiteSpace=wrap;html=1;" vertex="1" parent="1">
          <mxGeometry x="240" y="1190" width="120" height="60" as="geometry" />
        </mxCell>
        <mxCell id="hDY_atvJ24UPQ20lIap3-44" style="edgeStyle=orthogonalEdgeStyle;rounded=0;orthogonalLoop=1;jettySize=auto;html=1;" edge="1" parent="1" source="hDY_atvJ24UPQ20lIap3-46" target="hDY_atvJ24UPQ20lIap3-47">
          <mxGeometry relative="1" as="geometry" />
        </mxCell>
        <mxCell id="hDY_atvJ24UPQ20lIap3-45" value="引擎流程实例id&lt;div&gt;candidateGroup&lt;/div&gt;&lt;div&gt;...&lt;/div&gt;" style="edgeLabel;html=1;align=center;verticalAlign=middle;resizable=0;points=[];" vertex="1" connectable="0" parent="hDY_atvJ24UPQ20lIap3-44">
          <mxGeometry x="-0.1" y="3" relative="1" as="geometry">
            <mxPoint as="offset" />
          </mxGeometry>
        </mxCell>
        <mxCell id="hDY_atvJ24UPQ20lIap3-46" value="OPENAPI&lt;div&gt;查询流程中我可办的任务&lt;br&gt;&lt;/div&gt;" style="strokeWidth=2;html=1;shape=mxgraph.flowchart.start_1;whiteSpace=wrap;fillColor=#CCFFE6;" vertex="1" parent="1">
          <mxGeometry x="30" y="85" width="100" height="60" as="geometry" />
        </mxCell>
        <mxCell id="hDY_atvJ24UPQ20lIap3-47" value="查询" style="rounded=1;whiteSpace=wrap;html=1;" vertex="1" parent="1">
          <mxGeometry x="250" y="85" width="120" height="60" as="geometry" />
        </mxCell>
        <mxCell id="hDY_atvJ24UPQ20lIap3-48" value="Camunda" style="shape=tape;whiteSpace=wrap;html=1;strokeWidth=2;size=0.19" vertex="1" parent="1">
          <mxGeometry x="500" y="80" width="100" height="65" as="geometry" />
        </mxCell>
        <mxCell id="hDY_atvJ24UPQ20lIap3-49" style="edgeStyle=orthogonalEdgeStyle;rounded=0;orthogonalLoop=1;jettySize=auto;html=1;entryX=0;entryY=0.5;entryDx=0;entryDy=0;entryPerimeter=0;" edge="1" parent="1" source="hDY_atvJ24UPQ20lIap3-47" target="hDY_atvJ24UPQ20lIap3-48">
          <mxGeometry relative="1" as="geometry" />
        </mxCell>
        <mxCell id="hDY_atvJ24UPQ20lIap3-50" value="根据流程实例id查询" style="edgeLabel;html=1;align=center;verticalAlign=middle;resizable=0;points=[];" vertex="1" connectable="0" parent="hDY_atvJ24UPQ20lIap3-49">
          <mxGeometry x="0.1599" relative="1" as="geometry">
            <mxPoint x="-14" as="offset" />
          </mxGeometry>
        </mxCell>
      </root>
    </mxGraphModel>
  </diagram>
</mxfile>
